<?xml version="1.0" encoding="UTF-8"?>
<svg width="22px" height="23px" viewBox="0 0 22 23" version="1.1" xmlns="http://www.w3.org/2000/svg" xmlns:xlink="http://www.w3.org/1999/xlink">
    <!-- Generator: Sketch 42 (36781) - http://www.bohemiancoding.com/sketch -->
    <title>Gear</title>
    <desc>Created with Sketch.</desc>
    <defs></defs>
    <g id="Page-1" stroke="none" stroke-width="1" fill="none" fill-rule="evenodd" stroke-opacity="0.73">
        <g id="ChromExtensionFirstScreen" transform="translate(-1486.000000, -211.000000)" stroke="#555555" stroke-width="1.2">
            <g id="Extension" transform="translate(1214.000000, 107.000000)">
                <g id="Gear" transform="translate(273.000000, 105.000000)">
                    <path d="M14,10.9994419 C14,13.2084554 12.2093218,15 10.0011164,15 C7.79179459,15 6,13.2084554 6,10.9994419 C6,8.79042835 7.79179459,7 10.0011164,7 C12.2093218,7 14,8.79042835 14,10.9994419 Z" id="Stroke-1"></path>
                    <path d="M18.2715,4.28991667 L14.7998333,4.66741667 C14.2481667,4.25741667 13.6406667,3.91741667 12.9931667,3.65741667 L11.5656667,0.416583333 C11.0873333,0.349083333 10.599,0.312416667 10.1023333,0.312416667 C9.6065,0.312416667 9.11816667,0.349083333 8.639,0.416583333 L7.27233333,3.51658333 C6.50066667,3.78491667 5.7815,4.16491667 5.13483333,4.63825 L1.93233333,4.28991667 C1.3315,5.05575 0.834833333,5.90658333 0.467333333,6.82408333 L2.08983333,9.04241667 C1.89983333,9.73491667 1.79566667,10.4640833 1.79566667,11.2174167 C1.79566667,11.6874167 1.83566667,12.1474167 1.914,12.59575 L0.467333333,14.5715833 C0.834833333,15.48825 1.3315,16.3399167 1.93233333,17.10575 L4.079,16.8724167 C5.08316667,17.91575 6.36233333,18.6915833 7.80233333,19.0824167 L8.639,20.97825 C9.1165,21.04575 9.6065,21.08325 10.1023333,21.08325 C10.599,21.08325 11.0873333,21.04575 11.5656667,20.97825 L12.4481667,18.9774167 C13.7565,18.5549167 14.919,17.8124167 15.8448333,16.8415833 L18.2715,17.10575 C18.874,16.3399167 19.3681667,15.48825 19.7381667,14.5715833 L18.0323333,12.2415833 C18.0748333,11.9065833 18.099,11.5640833 18.099,11.2174167 C18.099,10.5774167 18.0223333,9.95491667 17.8823333,9.35741667 L19.7381667,6.82408333 C19.3681667,5.90658333 18.874,5.05575 18.2715,4.28991667 Z" id="Stroke-3"></path>
                </g>
            </g>
        </g>
    </g>
</svg>