<?xml version="1.0" encoding="UTF-8"?>
<svg width="162px" height="162px" viewBox="0 0 162 162" version="1.1" xmlns="http://www.w3.org/2000/svg" xmlns:xlink="http://www.w3.org/1999/xlink">
    <!-- Generator: Sketch 41.2 (35397) - http://www.bohemiancoding.com/sketch -->
    <title>mill</title>
    <desc>Created with Sketch.</desc>
    <defs>
        <circle id="path-1" cx="64" cy="64" r="64"></circle>
        <filter x="-50%" y="-50%" width="200%" height="200%" filterUnits="objectBoundingBox" id="filter-2">
            <feOffset dx="0" dy="2" in="SourceAlpha" result="shadowOffsetOuter1"></feOffset>
            <feGaussianBlur stdDeviation="8.5" in="shadowOffsetOuter1" result="shadowBlurOuter1"></feGaussianBlur>
            <feColorMatrix values="0 0 0 0 0   0 0 0 0 0   0 0 0 0 0  0 0 0 0.225345335 0" type="matrix" in="shadowBlurOuter1"></feColorMatrix>
        </filter>
    </defs>
    <g id="Page-1" stroke="none" stroke-width="1" fill="none" fill-rule="evenodd">
        <g id="ChromeExtensionLogin" transform="translate(-1313.000000, -197.000000)">
            <g id="Extension" transform="translate(1214.000000, 107.000000)">
                <g id="mill" transform="translate(116.000000, 105.000000)">
                    <g id="Oval">
                        <use fill="black" fill-opacity="1" filter="url(#filter-2)" xlink:href="#path-1"></use>
                        <use fill="#9AF4EF" fill-rule="evenodd" xlink:href="#path-1"></use>
                    </g>
                    <path d="M2.52275,81.78325 C23.353,80.96025 89.05175,77.66825 126.96225,75.42625 C127.63125,71.71675 128,67.9025 128,64 C128,60.25975 127.661,56.6005 127.04525,53.03625 C93.39225,54.204 31.253,60.15125 0.049,65.9325 C0.212,71.41825 1.063,76.72825 2.52275,81.78325 Z" id="Shape" fill="#FFFFF4" opacity="0.300000012"></path>
                    <path d="M2.12775,80.39175 C27.28075,80.624 95.2525,80.95775 125.78475,80.7 C127.19225,75.48125 127.961,70.00225 127.99125,64.346 C90.61175,64.73175 21.77,67.0675 0.265,69.6825 C0.588,73.3495 1.21275,76.9285 2.12775,80.39175 Z" id="Shape" fill="#FFFFF4" opacity="0.400000006"></path>
                    <path d="M37.6985,37.27425 C37.6985,34.468 39.9735,32.19325 42.7795,32.19325 C43.203,32.19325 43.608,32.26025 44.00125,32.358 C45.327,30.92625 47.207,30.01575 49.31225,30.01575 C53.321,30.01575 56.57075,33.2655 56.57075,37.27425 L37.6985,37.27425 L37.6985,37.27425 Z" id="Shape" fill="#FFFFFF" opacity="0.600000024"></path>
                    <path d="M32.2485,19.52425 C32.2485,17.16375 34.162,15.25025 36.5225,15.25025 C36.87875,15.25025 37.2195,15.3065 37.55025,15.38875 C38.6655,14.18425 40.24675,13.4185 42.01775,13.4185 C45.38975,13.4185 48.1235,16.15225 48.1235,19.52425 L32.2485,19.52425 Z" id="Shape" fill="#FFFFFF" opacity="0.600000024"></path>
                    <path d="M107.1275,49.12575 C107.1275,47.3705 108.5505,45.9475 110.30575,45.9475 C110.57075,45.9475 110.824,45.9895 111.07,46.0505 C111.89925,45.155 113.07525,44.5855 114.39225,44.5855 C116.89975,44.5855 118.93275,46.61825 118.93275,49.126 L107.1275,49.126 L107.1275,49.12575 Z" id="Shape" fill="#FFFFFF" opacity="0.600000024"></path>
                    <path d="M92.49875,36.33475 C92.49875,33.97425 94.41225,32.06075 96.77275,32.06075 C97.129,32.06075 97.46975,32.117 97.8005,32.19925 C98.91575,30.99475 100.497,30.229 102.268,30.229 C105.64,30.229 108.37375,32.96275 108.37375,36.33475 L92.49875,36.33475 Z" id="Shape" fill="#FFFFFF" opacity="0.600000024"></path>
                    <path d="M41.311,31.4505 C40.7,31.4505 40.1225,31.57075 39.569,31.74525 C37.81575,29.225 34.9075,27.568 31.60475,27.568 C28.302,27.568 25.39375,29.225 23.6405,31.74525 C23.087,31.57075 22.5095,31.4505 21.8985,31.4505 C18.682,31.4505 16.07475,34.05775 16.07475,37.27425 L47.13475,37.27425 C47.13475,34.058 44.52725,31.4505 41.311,31.4505 Z" id="Shape" fill="#FFFFFF"></path>
                    <path d="M92.7115,31.97525 C92.254,31.97525 91.82175,32.06525 91.4075,32.196 C90.09525,30.3095 87.918,29.069 85.44575,29.069 C82.9735,29.069 80.7965,30.30925 79.484,32.196 C79.06975,32.06525 78.6375,31.97525 78.18,31.97525 C75.7725,31.97525 73.82075,33.927 73.82075,36.3345 L97.07075,36.3345 C97.071,33.927 95.11925,31.97525 92.7115,31.97525 Z" id="Shape" fill="#FFFFFF"></path>
                    <path d="M107.7145,46.0675 C107.3935,46.0675 107.09025,46.13075 106.79975,46.22225 C105.879,44.89875 104.35175,44.0285 102.61725,44.0285 C100.88275,44.0285 99.3555,44.89875 98.43475,46.22225 C98.144,46.1305 97.84075,46.0675 97.52,46.0675 C95.831,46.0675 94.46175,47.43675 94.46175,49.12575 L110.773,49.12575 C110.77275,47.43675 109.4035,46.0675 107.7145,46.0675 Z" id="Shape" fill="#FFFFFF"></path>
                    <path d="M70.5605,18.5505 C70.5605,15.4375 73.084,12.914 76.197,12.914 C76.66675,12.914 77.116,12.98825 77.55225,13.09675 C79.023,11.5085 81.10825,10.4985 83.44375,10.4985 C87.89075,10.4985 91.49575,14.1035 91.49575,18.5505 L70.5605,18.5505 Z" id="Shape" fill="#FFFFFF"></path>
                    <path d="M0.45825,71.5 C4.17325,103.30925 31.19325,128 64,128 C96.807,128 123.82675,103.30925 127.54175,71.5 L0.45825,71.5 Z" id="Shape" fill="#B0EB81"></path>
                    <path d="M76.799,32.4955 L73.676,28.52725 C72.822,27.44225 71.17775,27.44225 70.32375,28.52725 L67.20075,32.4955 L63.079,64.81625 L72,64.81625 L80.921,64.81625 L76.799,32.4955 Z" id="Shape" fill="#C4B478"></path>
                    <path d="M70.79675,28.52725 C70.73075,28.44325 70.63525,28.40925 70.56025,28.33825 C70.4855,28.40925 70.38975,28.44325 70.32375,28.52725 L67.20075,32.4955 L63.079,64.81625 L69.1205,64.81625 L72,64.81625 L78.04175,64.81625 L73.91975,32.4955 L70.79675,28.52725 Z" id="Shape" fill="#BCA077"></path>
                    <path d="M81.15375,69.0505 L62.84625,69.0505 L62.84625,56.3165 C62.84625,56.1785 62.95825,56.0665 63.09625,56.0665 L80.90375,56.0665 C81.04175,56.0665 81.15375,56.1785 81.15375,56.3165 L81.15375,69.0505 Z" id="Shape" fill="#8C665B"></path>
                    <path d="M72.00025,58.9645 C70.01525,58.9645 68.406,60.57375 68.406,62.55875 L68.406,69.05075 L75.59425,69.05075 L75.59425,62.55875 C75.59425,60.5735 73.985,58.9645 72.00025,58.9645 Z" id="Shape" fill="#674447"></path>
                    <path d="M53.134,47.9695 L58.10675,52.94225 C59.206,54.0415 61.05175,53.783 61.80675,52.424 L72,34.07625 L53.65225,44.2695 C52.29325,45.0245 52.03475,46.87025 53.134,47.9695 Z" id="Shape" fill="#8C665B"></path>
                    <path d="M90.866,47.9695 L85.89325,52.94225 C84.794,54.0415 82.94825,53.783 82.19325,52.424 L72,34.07625 L90.34775,44.2695 C91.70675,45.0245 91.96525,46.87025 90.866,47.9695 Z" id="Shape" fill="#8C665B"></path>
                    <path d="M90.866,20.183 L85.89325,15.21025 C84.794,14.111 82.94825,14.3695 82.19325,15.7285 L72,34.07625 L90.34775,23.883 C91.70675,23.128 91.96525,21.28225 90.866,20.183 Z" id="Shape" fill="#8C665B"></path>
                    <path d="M53.134,20.183 L58.10675,15.21025 C59.206,14.111 61.05175,14.3695 61.80675,15.7285 L72,34.07625 L53.65225,23.883 C52.29325,23.128 52.03475,21.28225 53.134,20.183 Z" id="Shape" fill="#8C665B"></path>
                    <circle id="Oval" fill="#8C665B" cx="72" cy="34.07625" r="2.87925"></circle>
                    <path d="M109.002,87.27425 C108.396,87.27425 107.90525,86.7835 107.90525,86.17825 L107.90525,74.3735 C107.90525,73.76825 108.396,73.2775 109.002,73.2775 C109.608,73.2775 110.09875,73.76825 110.09875,74.3735 L110.09875,86.17825 C110.09875,86.7835 109.608,87.27425 109.002,87.27425 Z" id="Shape" fill="#674447"></path>
                    <path d="M115.9095,73.368 C115.9095,77.18325 112.81675,80.276 109.0015,80.276 C105.18625,80.276 102.0935,77.18325 102.0935,73.368 C102.0935,69.55275 105.18625,57.82525 109.0015,57.82525 C112.81675,57.82525 115.9095,69.553 115.9095,73.368 Z" id="Shape" fill="#43AB5F"></path>
                    <path d="M109.00175,57.82525 C108.044,57.82525 107.132,58.5655 106.303,59.733 L106.30325,59.733 C109.795,59.733 112.62575,70.46675 112.62575,73.95875 C112.62575,76.99625 110.48225,79.5285 107.6265,80.1375 C108.07125,80.22725 108.53075,80.27625 109.002,80.27625 C112.817,80.27625 115.91,77.1835 115.91,73.3685 C115.9095,69.55275 112.81675,57.82525 109.00175,57.82525 Z" id="Shape" fill="#71BE63"></path>
                    <path d="M22.7695,78.73825 C22.159,78.73825 21.6645,78.3625 21.6645,77.89925 L21.6645,68.8635 C21.6645,68.40025 22.159,68.0245 22.7695,68.0245 C23.38,68.0245 23.8745,68.40025 23.8745,68.8635 L23.8745,77.89925 C23.8745,78.3625 23.38,78.73825 22.7695,78.73825 Z" id="Shape" fill="#674447"></path>
                    <path d="M28.72175,66.52025 C28.72175,71.0885 26.05675,73.3815 22.76925,73.3815 C19.48175,73.3815 16.81675,71.0885 16.81675,66.52025 C16.81675,61.952 20.463,44.13675 22.76925,44.13675 C25.0755,44.13675 28.72175,61.952 28.72175,66.52025 Z" id="Shape" fill="#43AB5F"></path>
                    <path d="M22.76925,44.13675 C22.3125,44.13675 21.803,44.843 21.27975,45.99925 C23.161,48.8485 25.59525,62.9265 25.59525,66.83675 C25.59525,70.657 23.8965,72.80775 21.641,73.28025 C22.007,73.3435 22.38275,73.38125 22.7695,73.38125 C26.057,73.38125 28.722,71.08825 28.722,66.52 C28.722,61.95175 25.0755,44.13675 22.76925,44.13675 Z" id="Shape" fill="#71BE63"></path>
                    <path d="M38.752,73.4375 C37.95975,73.4375 37.31825,72.796 37.31825,72.00475 L37.31825,56.57225 C37.31825,55.781 37.95975,55.1395 38.752,55.1395 C39.54425,55.1395 40.18575,55.781 40.18575,56.57225 L40.18575,72.00475 C40.186,72.796 39.54425,73.4375 38.752,73.4375 Z" id="Shape" fill="#674447"></path>
                    <path d="M47.7825,55.25775 C47.7825,60.24525 43.73925,64.2885 38.75175,64.2885 C33.76425,64.2885 29.721,60.24525 29.721,55.25775 C29.721,50.27025 33.76425,34.93825 38.75175,34.93825 C43.73925,34.93825 47.7825,50.27 47.7825,55.25775 Z" id="Shape" fill="#43AB5F"></path>
                    <path d="M38.75175,34.93825 C37.49975,34.93825 36.3075,35.906 35.2235,37.43225 L35.22375,37.43225 C39.78875,37.43225 43.48925,51.46475 43.48925,56.02975 C43.48925,60.0005 40.687,63.31125 36.9535,64.1075 C37.53475,64.225 38.13575,64.28875 38.7515,64.28875 C43.739,64.28875 47.7825,60.2455 47.7825,55.258 C47.7825,50.27 43.73925,34.93825 38.75175,34.93825 Z" id="Shape" fill="#71BE63"></path>
                    <path d="M3.073,83.61 C11.3555,109.36075 35.496,128 64,128 C91.70275,128 115.289,110.39625 124.197,85.76725 C96.5285,84.4135 87.02025,62 64,62 C33.98475,62 24.479,82.44775 3.073,83.61 Z" id="Shape" fill="#71BE63"></path>
                    <path d="M124.197,85.76725 C96.5285,84.4135 87.02025,62 64,62 C62.5785,62 61.217,62.0595 59.884,62.147 C85.365,63.95 97.0405,93.60375 115.811,101.5035 C119.2875,96.70825 122.147,91.43575 124.197,85.76725 Z" id="Shape" fill="#94D75B"></path>
                    <path d="M6.32425,91.6555 C16.645,113.14325 38.5685,128 64,128 C80.9475,128 96.334,121.38975 107.78225,110.635 C67.3145,108.3545 56.249,80.77575 6.32425,91.6555 Z" id="Shape" fill="#43AB5F"></path>
                    <path d="M62.90575,97.184 C66.189,98.5895 69.43725,100.05825 72.75275,101.4935 C86.79525,89.689 102.90375,80.5235 93.3945,74.0625 L87.766,70.36725 C103.771,80.48925 82.53175,87.5605 62.90575,97.184 Z" id="Shape" fill="#C4B478"></path>
                    <path d="M13.7835,103.57475 C19.419,110.72775 26.545,116.634 34.6935,120.8535 C34.953,109.443 42.102,101.61375 50.878,92.65025 C46.5205,91.29125 41.90025,90.22275 36.81425,89.635 C28.46125,91.637 19.37475,96.94475 13.7835,103.57475 Z" id="Shape" fill="#BCA077"></path>
                    <path d="M93.3945,74.0625 L87.766,70.36725 C93.96,74.28425 94.5605,77.744 91.8505,81.07225 C92.59175,81.843 93.327,82.61625 94.0595,83.38925 C96.8795,79.8275 97.30025,76.7165 93.3945,74.0625 Z" id="Shape" fill="#CCBE84"></path>
                    <path d="M8.63475,95.9965 C19.698,115.11425 40.32275,128 64,128 C70.8945,128 77.52325,126.88975 83.741,124.86775 C65.245,116.0885 39.288,85.87525 8.63475,95.9965 Z" id="Shape" fill="#3C9B61"></path>
                    <path d="M25.52825,94.1715 C21.03175,96.6885 16.8765,99.91175 13.7935,103.564 C14.12525,103.98525 14.4685,104.3965 14.81025,104.809 C15.61425,105.7785 16.44525,106.72325 17.30425,107.643 C17.64175,108.00475 17.96875,108.37625 18.3145,108.73025 C18.86225,109.29025 19.433,109.82775 20.00075,110.36725 C20.319,110.67025 20.6335,110.9775 20.958,111.27375 C21.5685,111.8305 22.19375,112.37075 22.8255,112.9035 C23.107,113.1415 23.38975,113.378 23.6755,113.6115 C24.36675,114.1745 25.067,114.727 25.78175,115.2615 C25.97125,115.4035 26.165,115.5405 26.356,115.6805 C28.9915,117.60525 31.7735,119.342 34.69325,120.85375 C34.882,112.55675 38.722,106.1535 44.17275,99.8305 C38.24425,96.96075 32.0205,94.83525 25.52825,94.1715 Z" id="Shape" fill="#AD9172"></path>
                </g>
            </g>
        </g>
    </g>
</svg>