<?xml version="1.0" encoding="UTF-8"?>
<svg width="22px" height="22px" viewBox="0 0 41 41" version="1.1" xmlns="http://www.w3.org/2000/svg" xmlns:xlink="http://www.w3.org/1999/xlink">
    <!-- Generator: Sketch 42 (36781) - http://www.bohemiancoding.com/sketch -->
    <title>Combined Shape</title>
    <desc>Created with Sketch.</desc>
    <defs></defs>
    <g id="Sow" stroke="none" stroke-width="1" fill="none" fill-rule="evenodd">
        <g id="Study-Page" transform="translate(-773.000000, -535.000000)" fill="#555">
            <g id="Icons" transform="translate(508.000000, 516.000000)">
                <path d="M279.177986,33.1779859 L266.852672,33.1779859 C263.294896,33.1779859 260.425872,36.0514982 260.425872,39.5961552 C260.425872,43.1335995 263.303249,46.0143244 266.852672,46.0143244 L279.177986,46.0143244 L279.177986,58.3396381 C279.177986,61.8974143 282.051498,64.7664379 285.596155,64.7664379 C289.1336,64.7664379 292.014324,61.8890616 292.014324,58.3396381 L292.014324,46.0143244 L304.339638,46.0143244 C307.897414,46.0143244 310.766438,43.1408122 310.766438,39.5961552 C310.766438,36.0587108 307.889062,33.1779859 304.339638,33.1779859 L292.014324,33.1779859 L292.014324,20.8526722 C292.014324,17.294896 289.140812,14.4258725 285.596155,14.4258725 C282.058711,14.4258725 279.177986,17.3032487 279.177986,20.8526722 L279.177986,33.1779859 Z" id="Combined-Shape" transform="translate(285.596155, 39.596155) rotate(-45.000000) translate(-285.596155, -39.596155) "></path>
            </g>
        </g>
    </g>
</svg>
