<?xml version="1.0" encoding="UTF-8"?>
<svg width="50px" height="33px" viewBox="0 0 50 33" version="1.1" xmlns="http://www.w3.org/2000/svg" xmlns:xlink="http://www.w3.org/1999/xlink">
    <!-- Generator: Sketch 42 (36781) - http://www.bohemiancoding.com/sketch -->
    <title>Combined Shape</title>
    <desc>Created with Sketch.</desc>
    <defs></defs>
    <g id="Sow" stroke="none" stroke-width="1" fill="none" fill-rule="evenodd">
        <g id="Study-Page" transform="translate(-41.000000, -695.000000)" fill="#555555">
            <path d="M41.0504711,711.234159 C41.0606961,711.012064 41.0901105,710.794981 41.137089,710.584531 C41.2033501,709.715955 41.5678514,708.866589 42.2288949,708.205546 L53.9685538,696.465887 C55.4421071,694.992334 57.8342075,694.995332 59.3047624,696.465887 C60.7783158,697.93944 60.7721249,700.334733 59.3047624,701.802095 L53.4693996,707.637458 L86.3312977,707.637458 C88.4120957,707.637458 90.0989158,709.331049 90.0989158,711.410728 C90.0989158,713.494647 88.4104177,715.183997 86.3312977,715.183997 L53.4411126,715.183997 L59.1799084,720.922793 C60.6534617,722.396346 60.6504634,724.788446 59.1799084,726.259001 C57.7063551,727.732555 55.3110623,727.726364 53.8436998,726.259001 L42.1040409,714.519342 C41.2100919,713.625393 40.8595714,712.393383 41.0504711,711.234159 Z" id="Combined-Shape"></path>
        </g>
    </g>
</svg>