<?xml version="1.0" encoding="UTF-8"?>
<svg width="50px" height="32px" viewBox="0 0 50 32" version="1.1" xmlns="http://www.w3.org/2000/svg" xmlns:xlink="http://www.w3.org/1999/xlink">
    <!-- Generator: Sketch 42 (36781) - http://www.bohemiancoding.com/sketch -->
    <title>Combined Shape</title>
    <desc>Created with Sketch.</desc>
    <defs></defs>
    <g id="Page-1" stroke="none" stroke-width="1" fill="none" fill-rule="evenodd">
        <g id="Artboard" transform="translate(-451.000000, -1075.000000)" fill="#555555">
            <path d="M451.050471,1090.87231 C451.060696,1090.65022 451.090111,1090.43314 451.137089,1090.22268 C451.20335,1089.35411 451.567851,1088.50474 452.228895,1087.8437 L463.968554,1076.10404 C465.442107,1074.63049 467.834208,1074.63349 469.304762,1076.10404 C470.778316,1077.57759 470.772125,1079.97289 469.304762,1081.44025 L463.4694,1087.27561 L496.331298,1087.27561 C498.412096,1087.27561 500.098916,1088.9692 500.098916,1091.04888 C500.098916,1093.1328 498.410418,1094.82215 496.331298,1094.82215 L463.441113,1094.82215 L469.179908,1100.56095 C470.653462,1102.0345 470.650463,1104.4266 469.179908,1105.89716 C467.706355,1107.37071 465.311062,1107.36452 463.8437,1105.89716 L452.104041,1094.1575 C451.210092,1093.26355 450.859571,1092.03154 451.050471,1090.87231 Z" id="Combined-Shape" transform="translate(475.549458, 1091.000000) scale(-1, 1) translate(-475.549458, -1091.000000) "></path>
        </g>
    </g>
</svg>