<?xml version="1.0" encoding="UTF-8"?>
<svg width="48px" height="48px" viewBox="0 0 48 48" version="1.1" xmlns="http://www.w3.org/2000/svg" xmlns:xlink="http://www.w3.org/1999/xlink">
    <!-- Generator: Sketch 41.2 (35397) - http://www.bohemiancoding.com/sketch -->
    <title>icon48</title>
    <desc>Created with Sketch.</desc>
    <defs>
        <path d="M12.6202947,27.5018693 C18.9304421,27.5018693 25.2405895,21.4842311 25.2405895,12.7025707 C25.2405895,7.7474938 21.222524,3.32179521 17.7208028,0.405672181 C16.7965446,2.2087556 12.6202947,6.92812616 12.6202947,6.92812616 C12.6202947,6.92812616 8.66750327,2.12186243 7.79433763,0.179214998 C4.23173493,3.08986183 0,7.61745168 0,12.7025707 C0,21.4842311 6.31014737,27.5018693 12.6202947,27.5018693 Z" id="path-1"></path>
    </defs>
    <g id="Page-1" stroke="none" stroke-width="1" fill="none" fill-rule="evenodd">
        <g id="icon48">
            <g id="Logo" transform="translate(12.000000, 1.000000)">
                <g id="Group">
                    <g id="Stem-seed" fill="#A0E4B0">
                        <path d="M10.5911276,4.19025214 C10.5911276,2.94440769 11.5965618,1.93445122 12.8563087,1.93445122 L12.8563087,1.93445122 C14.1073337,1.93445122 15.1214898,2.94779332 15.1214898,4.20197402 L15.1214898,10.9696314 L15.1214898,20.3662801 L15.1214898,42.7569483 C15.1214898,44.0067727 14.1160556,45.0199557 12.8563087,45.0199557 L12.8563087,45.0199557 C11.6052837,45.0199557 10.5911276,43.997411 10.5911276,42.7641547 L10.5911276,4.19025214 Z" id="Rectangle"></path>
                        <path d="M5.53687213,16.6975654 C5.53687213,16.6975654 8.12003115,14.9541543 8.12003115,12.8035476 C8.12003115,11.7113043 6.94182876,10.8131222 6.28602822,10.1059879 C5.63022769,9.39885349 5.53687213,8.9095298 5.53687213,8.9095298 C5.53687213,8.9095298 2.95371311,10.652941 2.95371311,12.8035476 C2.95371311,13.5841555 3.05427036,14.4294485 3.48786529,15.0388632 C3.92146022,15.648278 5.53687213,16.6975654 5.53687213,16.6975654 Z" id="Oval" transform="translate(5.536872, 12.803548) rotate(-45.000000) translate(-5.536872, -12.803548) "></path>
                        <path d="M14.0775135,1.06830823 C15.4323653,3.12145809 14.3432481,6.61465783 14.3432481,6.61465783 C14.3432481,6.61465783 10.4624588,7.36788368 8.53343633,5.43886118 C7.04904117,3.95446602 7.15291282,1.31435149 7.27965823,0.176154406 C7.61512279,0.238953914 8.02721694,0.31286654 8.53343633,0.408678008 C11.3062843,0.933491229 11.4321354,1.06881177 13.7269488,1.06881177 C13.8431708,1.06881177 13.9600491,1.06864576 14.0775135,1.06830823 Z" id="Combined-Shape"></path>
                        <path d="M20.422348,12.5941841 C20.422348,12.5941841 23.005507,10.8507729 23.005507,8.70016624 C23.005507,8.04435523 22.852354,7.54554007 22.5184379,7.00334958 C22.1845218,6.46115909 20.422348,4.80614843 20.422348,4.80614843 C20.422348,4.80614843 17.839189,6.54955959 17.839189,8.70016624 C17.839189,9.503216 17.9720384,10.3560824 18.4234059,10.97601 C18.8747733,11.5959376 20.422348,12.5941841 20.422348,12.5941841 Z" id="Oval" transform="translate(20.422348, 8.700166) scale(-1, 1) rotate(-45.000000) translate(-20.422348, -8.700166) "></path>
                    </g>
                    <g id="Seed" transform="translate(0.236014, 18.468473)">
                        <mask id="mask-2" fill="white">
                            <use xlink:href="#path-1"></use>
                        </mask>
                        <use id="Combined-Shape" fill="#DFBD98" xlink:href="#path-1"></use>
                        <path d="M1.2943892,0.245877217 C0.287506331,0.245877217 -0.688688874,0.514661299 -1.61798651,1.0190688 L-1.61798651,-6.11508117 C-1.61798651,-7.62011255 -0.754592188,-8.84018154 0.327859665,-8.84018154 L24.2655352,-8.84018154 C25.3401964,-8.84018154 26.2113814,-7.61302239 26.2113814,-6.11508117 L26.2113814,0.709350159 C25.4794789,0.405423251 24.7219474,0.245877217 23.9462003,0.245877217 C17.7652697,0.245877217 12.7407541,10.3745693 12.6224285,22.9610241 C12.4998354,10.3745693 7.4753198,0.245877217 1.2943892,0.245877217 Z M20.0630327,-8.32725887 L5.17755682,-8.32725887 C5.17755682,-8.32725887 5.54839376,-4.28500191 6.85155055,-1.65977935 C8.15470733,0.96544321 12.6202947,6.66621216 12.6202947,6.66621216 C12.6202947,6.66621216 16.7669807,1.50787261 17.9277572,-0.830523353 C19.0885337,-3.16891932 20.0630327,-8.32725887 20.0630327,-8.32725887 Z" id="Combined-Shape" fill="#AC9173" mask="url(#mask-2)"></path>
                    </g>
                </g>
            </g>
        </g>
    </g>
</svg>